<svg id="Ebene_1" data-name="Ebene 1" xmlns="http://www.w3.org/2000/svg" viewBox="0 0 516.74 120.36"><defs><style>.cls-1{fill:#1d1d1b;}</style></defs><path class="cls-1" d="M381.87,205.84a4,4,0,1,1,0-8c2.53,0,4.3,1.6,4.3,4s-1.77,4-4.3,4m-3.62-13.76a3.62,3.62,0,1,1,3.62,3.53,3.38,3.38,0,0,1-3.62-3.53m7.07,4.67v-.05a5.39,5.39,0,0,0,2.95-4.79c0-3.29-2.7-5.81-6.4-5.81s-6.39,2.52-6.39,5.81a5.4,5.4,0,0,0,2.94,4.79v.05A5.58,5.58,0,0,0,374.8,202c0,3.62,2.82,6.31,7.07,6.31s7.07-2.69,7.07-6.31a5.58,5.58,0,0,0-3.62-5.22" transform="translate(-22.34 -88.07)"/><path class="cls-1" d="M434.48,193.84a5.32,5.32,0,0,0-4.42,1.81H430l.68-6.61H440v-2.48H428.33l-1.09,12.25h2.86a4,4,0,0,1,3.87-2.57,4.43,4.43,0,0,1,4.42,4.76c0,3-1.73,4.8-4.5,4.8a3.8,3.8,0,0,1-4-3.41h-2.74c0,2.77,2.23,5.89,6.78,5.89a6.93,6.93,0,0,0,7.24-7.28,6.83,6.83,0,0,0-6.69-7.16" transform="translate(-22.34 -88.07)"/><path class="cls-1" d="M407.27,198.09c-2.4,0-4.29-2-4.29-4.79s1.85-4.84,4.29-4.84,4.25,2,4.25,4.84-1.81,4.79-4.25,4.79m-.17-12c-4,0-6.9,3-6.9,7.32s2.69,7.11,6.77,7.11A5.63,5.63,0,0,0,412,197.8h.08c-.17,5.13-4.08,9.13-10.1,8v2.48c8.08,1.14,12.88-4.46,12.88-12.21,0-5.34-2.53-10-7.79-10" transform="translate(-22.34 -88.07)"/><polygon class="cls-1" points="299.08 108 299.04 108 293.06 98.49 289.86 98.49 297.57 110.86 297.57 119.79 300.34 119.79 300.34 110.86 308 98.49 304.89 98.49 299.08 108"/><polygon class="cls-1" points="274.42 115.66 274.38 115.66 264.11 98.49 260.11 98.49 260.11 119.79 262.93 119.79 262.93 101.27 262.97 101.27 273.91 119.79 277.2 119.79 277.2 98.49 274.42 98.49 274.42 115.66"/><path class="cls-1" d="M255.89,199.69l3.87-10.31h.09l3.89,10.31Zm2.4-13.13-8.42,21.3h2.95l2.13-5.69h9.73l2.15,5.69h3.08l-8.34-21.3Z" transform="translate(-22.34 -88.07)"/><polygon class="cls-1" points="203.88 116.67 203.84 116.67 197.36 98.49 192.85 98.49 192.85 119.79 195.46 119.79 195.46 100.81 195.55 100.81 202.28 119.79 205.35 119.79 212.09 100.81 212.13 100.81 212.13 119.79 214.87 119.79 214.87 98.49 210.49 98.49 203.88 116.67"/><path class="cls-1" d="M187,189.09h6.82a3.93,3.93,0,1,1,0,7.83H187Zm7.87,9.26.64.9a6.11,6.11,0,0,0,5.38-6.25,6.47,6.47,0,0,0-6.73-6.44h-10v21.3H187V199.4h5.47l-.71-1.05Z" transform="translate(-22.34 -88.07)"/><path class="cls-1" d="M193.94,199.4h-1.48l5.73,8.46h3.28v-.09l-6-8.52a8.87,8.87,0,0,1-1.56.15" transform="translate(-22.34 -88.07)"/><path class="cls-1" d="M195.5,199.25l-.64-.9h-3.11l.71,1.05h1.48a9,9,0,0,0,1.56-.15" transform="translate(-22.34 -88.07)"/><polygon class="cls-1" points="132.88 119.79 146.98 119.79 146.98 117.26 135.62 117.26 135.62 110.11 146.05 110.11 146.05 107.58 135.62 107.58 135.62 100.97 146.98 100.97 146.98 98.49 132.88 98.49 132.88 119.79"/><path class="cls-1" d="M129.88,199.27h7.62c-.17,3.92-2.57,6.52-6.9,6.52s-7.41-2.81-7.41-8.58c0-5.39,3.07-8.63,7.41-8.63,4,0,6.06,2.11,6.6,4.08h3.12c-.59-3.07-3.87-6.56-9.72-6.56s-10.35,4.46-10.35,11.11c0,7.07,4.2,11.11,10.35,11.11,6.56,0,9.93-4.46,9.93-10.48v-1.05H129.88Z" transform="translate(-22.34 -88.07)"/><polygon class="cls-1" points="331.21 103.92 331.21 107.08 331.3 107.08 336.69 101.9 336.77 101.9 336.77 119.79 339.42 119.79 339.42 98.45 337.02 98.45 331.21 103.92"/><polygon class="cls-1" points="0 56.36 0 0.03 43.81 0.03 43.81 13.17 18.46 13.17 18.46 23.42 38.65 23.42 38.65 36.57 18.46 36.57 18.46 56.36 0 56.36"/><path class="cls-1" d="M146.78,144.41l2.11-7.44h18.39l2.19,7.44h18.39L167.67,88.07H148.89l-20.18,56.34Zm17.29-19.17H152.41l5.71-20.19Z" transform="translate(-22.34 -88.07)"/><polygon class="cls-1" points="232.33 56.34 232.33 0 250.8 0 250.8 43.19 276.15 43.19 276.15 56.34 232.33 56.34"/><polygon class="cls-1" points="344.45 0 362.92 0 362.92 18.23 379.11 0 400.79 0 380.21 21.2 402.98 56.34 380.84 56.34 367.3 33.88 362.92 38.5 362.92 56.34 344.45 56.34 344.45 0"/><polygon class="cls-1" points="469.72 56.34 469.72 0 515.64 0 515.64 13.15 488.18 13.15 488.18 21.2 511.42 21.2 511.42 34.35 488.18 34.35 488.18 43.19 516.74 43.19 516.74 56.34 469.72 56.34"/></svg>